<svg width="38" height="38" viewBox="0 0 38 38" fill="none" xmlns="http://www.w3.org/2000/svg">
<path d="M28.4135 22.8433L27.6175 23.6649L25.6429 21.4861C27.98 17.9595 28.5427 13.5477 27.3302 9.59485L28.8969 8.01333C29.1725 8.16702 29.4876 8.25435 29.8223 8.25435C30.8994 8.25435 31.7758 7.34971 31.7758 6.23783C31.7758 5.90854 31.6985 5.59773 31.5623 5.32284L34.9256 1.92789V3.68263H36.0218V0.017395H32.4712V1.14904H34.1291L30.8102 4.49917C30.5202 4.32289 30.1826 4.22122 29.8224 4.22122C28.7452 4.22122 27.8688 5.12587 27.8688 6.23775C27.8688 6.59354 27.9589 6.92788 28.1163 7.21839L26.9156 8.43041C26.2692 6.84146 25.3212 5.35333 24.0697 4.06148C18.8931 -1.28204 10.4705 -1.28188 5.29395 4.06148C0.682664 8.82152 0.179238 16.2405 3.78323 21.5812L2.86024 22.5688C2.58905 22.4214 2.28059 22.3376 1.95344 22.3376C0.876301 22.3375 0 23.2421 0 24.354C0 25.4659 0.876301 26.3705 1.95351 26.3705C3.03072 26.3705 3.90702 25.4659 3.90702 24.354C3.90702 23.9905 3.81291 23.6495 3.64911 23.3546L4.4555 22.4917C4.71823 22.8188 4.99715 23.1366 5.29387 23.4429C7.88218 26.1147 11.282 27.4505 14.6818 27.4505C17.2916 27.4505 19.9012 26.6623 22.1439 25.0879L24.1232 27.2719L23.3002 28.1215L32.8865 37.9826L38 32.7044L28.4135 22.8433ZM29.8224 5.35295C30.295 5.35295 30.6796 5.74996 30.6796 6.23783C30.6796 6.7257 30.295 7.12271 29.8224 7.12271C29.3497 7.12271 28.9651 6.7257 28.9651 6.23783C28.9651 5.74996 29.3497 5.35295 29.8224 5.35295ZM1.95351 25.2388C1.48089 25.2388 1.09629 24.8418 1.09629 24.3539C1.09629 23.8661 1.48089 23.4691 1.95351 23.4691C2.42621 23.4691 2.81074 23.8661 2.81074 24.3539C2.81066 24.8419 2.42614 25.2388 1.95351 25.2388ZM6.06909 22.6428C1.32005 17.7406 1.32005 9.76409 6.06909 4.86171C8.44357 2.41055 11.5626 1.18513 14.6817 1.18513C17.8008 1.18513 20.92 2.41071 23.2944 4.86171C28.0435 9.76394 28.0435 17.7405 23.2944 22.6428C18.5456 27.5449 10.818 27.5449 6.06909 22.6428ZM23.0299 24.409C23.3888 24.1091 23.736 23.7873 24.0697 23.4429C24.3921 23.1101 24.6944 22.7643 24.9765 22.4072L26.842 24.4654L24.8989 26.4712L23.0299 24.409ZM32.8853 36.3836L24.852 28.1201L28.4149 24.4422L36.4482 32.7057L32.8853 36.3836Z" fill="white"/>
</svg>
